<svg width="33" height="40" viewBox="0 0 33 40" fill="none" xmlns="http://www.w3.org/2000/svg">
<path d="M24.502 4.60685C24.502 2.19476 26.3655 0.23938 28.6642 0.23938C30.963 0.23938 32.8265 2.19476 32.8265 4.60685V6.67169C32.8265 9.08377 30.963 11.0392 28.6642 11.0392C26.3655 11.0392 24.502 9.08377 24.502 6.67169V4.60685Z" fill="#E2A954"/>
<path d="M0.147705 4.69913C0.147705 2.28705 2.01122 0.331665 4.30998 0.331665C6.60874 0.331665 8.47225 2.28705 8.47225 4.69913V6.76397C8.47225 9.17606 6.60874 11.1314 4.30998 11.1314C2.01122 11.1314 0.147705 9.17606 0.147705 6.76397V4.69913Z" fill="#E2A954"/>
<path fill-rule="evenodd" clip-rule="evenodd" d="M4.55179 17.6119C6.59429 17.6119 8.25007 19.3493 8.25007 21.4925V23.134C8.25007 27.9758 11.9907 31.9009 16.605 31.9009C21.2194 31.9009 24.96 27.9758 24.96 23.134V21.4925C24.96 19.3493 26.6158 17.6119 28.6583 17.6119C30.7008 17.6119 32.3566 19.3493 32.3566 21.4925V23.134C32.3566 32.2622 25.3044 39.6621 16.605 39.6621C7.90571 39.6621 0.853516 32.2622 0.853516 23.134V21.4925C0.853516 19.3493 2.50929 17.6119 4.55179 17.6119Z" fill="#EBC971"/>
</svg>
